<?xml version="1.0" encoding="UTF-8" standalone="no"?><!DOCTYPE svg PUBLIC "-//W3C//DTD SVG 1.1//EN" "http://www.w3.org/Graphics/SVG/1.1/DTD/svg11.dtd"><svg width="100%" height="100%" viewBox="0 0 193 37" version="1.1" xmlns="http://www.w3.org/2000/svg" xmlns:xlink="http://www.w3.org/1999/xlink" xml:space="preserve" xmlns:serif="http://www.serif.com/" style="fill-rule:evenodd;clip-rule:evenodd;stroke-linejoin:round;stroke-miterlimit:2;"><path d="M39.902,29.384l0,-23.591l5.947,-0l-0,18.576l11.185,0l0,5.015l-17.132,-0Z" style="fill:#fff;fill-rule:nonzero;"/><path d="M83.815,29.384l0,-23.591l8.132,-0l3.044,11.728c0.274,0.994 0.52,1.959 0.739,2.895c0.221,0.937 0.414,1.849 0.581,2.738c0.2,-0.942 0.425,-1.928 0.676,-2.958c0.251,-1.03 0.539,-2.137 0.864,-3.319l2.87,-11.084l8.133,-0l0,23.591l-5.398,-0l-0,-10.246c-0,-0.723 0.018,-1.734 0.053,-3.037c0.038,-1.302 0.091,-2.807 0.164,-4.513l-4.441,17.796l-5.872,-0l-4.348,-17.796c0.071,2.051 0.131,3.896 0.173,5.531c0.042,1.64 0.063,2.919 0.063,3.838l-0,8.427l-5.433,-0Z" style="fill:#fff;fill-rule:nonzero;"/><path d="M136.665,29.384l0,-18.768l-6.62,-0l0,-4.823l19.156,-0l-0,4.823l-6.62,-0l-0,18.768l-5.916,-0Z" style="fill:#fff;fill-rule:nonzero;"/><path d="M110.768,29.384l-0,-23.591l17.498,-0l-0,4.823l-11.606,-0l0,4.167l10.603,-0l0,4.726l-10.603,-0l0,5.051l11.98,-0l0,4.824l-17.872,-0Z" style="fill:#fff;fill-rule:nonzero;"/><path d="M150.965,29.384l-0,-23.591l17.51,-0l0,4.823l-11.612,-0l-0,4.167l10.614,-0l-0,4.726l-10.614,-0l-0,5.051l11.989,-0l-0,4.824l-17.887,-0Z" style="fill:#fff;fill-rule:nonzero;"/><path d="M192.684,20.908c-0.44,2.688 -1.638,4.773 -3.603,6.254c-1.96,1.481 -4.495,2.222 -7.604,2.222c-3.716,-0 -6.715,-1.07 -8.994,-3.211c-2.277,-2.141 -3.418,-4.957 -3.418,-8.448c0,-3.632 1.159,-6.528 3.478,-8.691c2.321,-2.16 5.427,-3.242 9.315,-3.242c3.085,0 5.602,0.718 7.555,2.148c1.95,1.433 3.061,3.385 3.337,5.862l-6.112,0c-0.299,-1.074 -0.868,-1.884 -1.702,-2.426c-0.835,-0.544 -1.928,-0.815 -3.288,-0.815c-1.815,0 -3.256,0.634 -4.315,1.903c-1.056,1.266 -1.585,2.999 -1.585,5.2c-0,2.189 0.501,3.892 1.503,5.102c0.998,1.213 2.408,1.819 4.226,1.819c1.46,-0 2.631,-0.315 3.512,-0.942c0.881,-0.628 1.428,-1.54 1.649,-2.735l6.046,-0Z" style="fill:#fff;fill-rule:nonzero;"/><path d="M67.59,20.164l5.322,0l-2.711,-8.13l-2.611,8.13Zm-0.578,-14.371l6.808,-0l8.593,23.591l-6.693,0l-1.487,-4.332l-8.132,-0l-1.385,4.332l-6.463,0l8.759,-23.591Z" style="fill:#fff;fill-rule:nonzero;"/><path d="M32.959,6.295l-16.387,16.316l-16.572,-16.344c7.158,-6.367 17.69,-8.247 26.923,-3.944c2.253,1.052 4.273,2.397 6.036,3.972" style="fill:#fff;fill-rule:nonzero;"/><path d="M6.243,25.783c0,-2.402 0.829,-4.613 2.217,-6.36l8.11,7.998l7.969,-7.933c1.357,1.736 2.167,3.921 2.167,6.295c0,5.651 -4.581,10.232 -10.231,10.232c-5.651,-0 -10.232,-4.581 -10.232,-10.232" style="fill:#fff;fill-rule:nonzero;"/></svg>