<?xml version="1.0" encoding="UTF-8" standalone="no"?><!DOCTYPE svg PUBLIC "-//W3C//DTD SVG 1.1//EN" "http://www.w3.org/Graphics/SVG/1.1/DTD/svg11.dtd"><svg width="100%" height="100%" viewBox="0 0 660 124" version="1.1" xmlns="http://www.w3.org/2000/svg" xmlns:xlink="http://www.w3.org/1999/xlink" xml:space="preserve" xmlns:serif="http://www.serif.com/" style="fill-rule:evenodd;clip-rule:evenodd;stroke-linejoin:round;stroke-miterlimit:2;"><path d="M136.595,100.587l0,-80.756l20.357,-0l-0,63.59l38.29,0l0,17.166l-58.647,-0Z" style="fill:#22317f;fill-rule:nonzero;"/><path d="M286.919,100.587l-0,-80.756l27.837,-0l10.422,40.147c0.938,3.403 1.778,6.706 2.528,9.912c0.756,3.206 1.419,6.328 1.991,9.372c0.684,-3.225 1.453,-6.6 2.312,-10.125c0.86,-3.528 1.847,-7.316 2.957,-11.363l9.825,-37.943l27.843,-0l0,80.756l-18.481,-0l0,-35.072c0,-2.475 0.063,-5.937 0.184,-10.397c0.129,-4.459 0.31,-9.609 0.56,-15.45l-15.203,60.919l-20.1,-0l-14.885,-60.919c0.244,7.022 0.447,13.338 0.591,18.935c0.144,5.612 0.216,9.99 0.216,13.137l-0,28.847l-18.597,-0Z" style="fill:#22317f;fill-rule:nonzero;"/><path d="M467.837,100.587l0,-64.247l-22.662,0l-0,-16.509l65.575,-0l-0,16.509l-22.663,0l0,64.247l-20.25,-0Z" style="fill:#22317f;fill-rule:nonzero;"/><path d="M379.184,100.587l0,-80.756l59.9,-0l0,16.509l-39.728,0l-0,14.266l36.297,-0l-0,16.178l-36.297,-0l-0,17.29l41.009,0l0,16.513l-61.181,-0Z" style="fill:#22317f;fill-rule:nonzero;"/><path d="M516.788,100.587l-0,-80.756l59.944,-0l-0,16.509l-39.754,0l0,14.266l36.335,-0l-0,16.178l-36.335,-0l0,17.29l41.041,0l0,16.513l-61.231,-0Z" style="fill:#22317f;fill-rule:nonzero;"/><path d="M659.604,71.573c-1.506,9.203 -5.609,16.34 -12.334,21.409c-6.71,5.069 -15.388,7.606 -26.032,7.606c-12.721,0 -22.987,-3.662 -30.787,-10.99c-7.794,-7.332 -11.7,-16.969 -11.7,-28.922c-0,-12.432 3.966,-22.347 11.906,-29.75c7.944,-7.394 18.575,-11.097 31.888,-11.097c10.559,-0 19.175,2.456 25.859,7.353c6.678,4.903 10.481,11.587 11.425,20.066l-20.922,-0c-1.025,-3.679 -2.972,-6.45 -5.828,-8.304c-2.856,-1.862 -6.6,-2.79 -11.256,-2.79c-6.213,-0 -11.144,2.169 -14.769,6.512c-3.616,4.335 -5.428,10.269 -5.428,17.803c-0,7.494 1.716,13.322 5.147,17.466c3.415,4.15 8.244,6.225 14.465,6.225c4.997,0 9.007,-1.078 12.022,-3.225c3.016,-2.15 4.891,-5.272 5.647,-9.362l20.697,-0Z" style="fill:#22317f;fill-rule:nonzero;"/><path d="M231.377,69.027l18.218,0l-9.281,-27.831l-8.937,27.831Zm-1.979,-49.197l23.307,0l29.415,80.76l-22.912,-0l-5.091,-14.831l-27.837,-0l-4.741,14.831l-22.125,-0l29.984,-80.76Z" style="fill:#22317f;fill-rule:nonzero;"/><path d="M112.825,21.548l-56.094,55.853l-56.731,-55.947c24.503,-21.796 60.556,-28.231 92.163,-13.503c7.712,3.603 14.628,8.207 20.662,13.597" style="fill:#c50068;fill-rule:nonzero;"/><path d="M21.372,88.263c-0,-8.225 2.837,-15.794 7.587,-21.772l27.766,27.378l27.278,-27.156c4.644,5.94 7.419,13.421 7.419,21.55c-0,19.343 -15.682,35.025 -35.025,35.025c-19.344,-0 -35.025,-15.682 -35.025,-35.025" style="fill:#22317f;fill-rule:nonzero;"/></svg>