<?xml version="1.0" encoding="UTF-8" standalone="no"?><!DOCTYPE svg PUBLIC "-//W3C//DTD SVG 1.1//EN" "http://www.w3.org/Graphics/SVG/1.1/DTD/svg11.dtd"><svg width="100%" height="100%" viewBox="0 0 1000 60" version="1.1" xmlns="http://www.w3.org/2000/svg" xmlns:xlink="http://www.w3.org/1999/xlink" xml:space="preserve" xmlns:serif="http://www.serif.com/" style="fill-rule:evenodd;clip-rule:evenodd;stroke-linejoin:round;stroke-miterlimit:2;"><g id="Ebene2"><rect x="980" y="20" width="20" height="20" style="fill:#fff;fill-opacity:0.5;"/><rect x="980" y="40" width="20" height="20" style="fill:#fff;fill-opacity:0.32;"/><rect x="980" y="0" width="20" height="20" style="fill:#fff;fill-opacity:0.13;"/><rect x="960" y="20" width="20" height="20" style="fill:#fff;fill-opacity:0.11;"/><rect x="960" y="40" width="20" height="20" style="fill:#fff;fill-opacity:0.6;"/><rect x="960" y="0" width="20" height="20" style="fill:#fff;fill-opacity:0.7;"/><rect x="940" y="20" width="20" height="20" style="fill:#fff;fill-opacity:0.29;"/><rect x="940" y="40" width="20" height="20" style="fill:#fff;fill-opacity:0.16;"/><rect x="940" y="0" width="20" height="20" style="fill:#fff;fill-opacity:0.13;"/><rect x="920" y="20" width="20" height="20" style="fill:#fff;fill-opacity:0.62;"/><rect x="920" y="40" width="20" height="20" style="fill:#fff;fill-opacity:0.08;"/><rect x="920" y="0" width="20" height="20" style="fill:#fff;fill-opacity:0.25;"/><rect x="900" y="20" width="20" height="20" style="fill:#fff;fill-opacity:0.18;"/><rect x="900" y="40" width="20" height="20" style="fill:#fff;fill-opacity:0.8;"/><rect x="900" y="0" width="20" height="20" style="fill:#fff;fill-opacity:0.33;"/><rect x="880" y="20" width="20" height="20" style="fill:#fff;fill-opacity:0.78;"/><rect x="880" y="40" width="20" height="20" style="fill:#fff;fill-opacity:0.3;"/><rect x="880" y="0" width="20" height="20" style="fill:#fff;fill-opacity:0.48;"/><rect x="860" y="20" width="20" height="20" style="fill:#fff;fill-opacity:0.18;"/><rect x="860" y="40" width="20" height="20" style="fill:#fff;fill-opacity:0.31;"/><rect x="860" y="0" width="20" height="20" style="fill:#fff;fill-opacity:0.57;"/><rect x="840" y="20" width="20" height="20" style="fill:#fff;fill-opacity:0.5;"/><rect x="840" y="40" width="20" height="20" style="fill:#fff;fill-opacity:0.15;"/><rect x="840" y="0" width="20" height="20" style="fill:#fff;fill-opacity:0.74;"/><rect x="820" y="20" width="20" height="20" style="fill:#fff;fill-opacity:0.18;"/><rect x="820" y="40" width="20" height="20" style="fill:#fff;fill-opacity:0.65;"/><rect x="820" y="0" width="20" height="20" style="fill:#fff;fill-opacity:0.47;"/><rect x="800" y="20" width="20" height="20" style="fill:#fff;fill-opacity:0.51;"/><rect x="800" y="40" width="20" height="20" style="fill:#fff;fill-opacity:0.33;"/><rect x="800" y="0" width="20" height="20" style="fill:#fff;fill-opacity:0.42;"/><rect x="780" y="20" width="20" height="20" style="fill:#fff;fill-opacity:0.43;"/><rect x="780" y="40" width="20" height="20" style="fill:#fff;fill-opacity:0.24;"/><rect x="780" y="0" width="20" height="20" style="fill:#fff;fill-opacity:0.83;"/><rect x="760" y="20" width="20" height="20" style="fill:#fff;fill-opacity:0.67;"/><rect x="760" y="40" width="20" height="20" style="fill:#fff;fill-opacity:0.33;"/><rect x="760" y="0" width="20" height="20" style="fill:#fff;fill-opacity:0.56;"/><rect x="740" y="20" width="20" height="20" style="fill:#fff;fill-opacity:0.53;"/><rect x="740" y="40" width="20" height="20" style="fill:#fff;fill-opacity:0.43;"/><rect x="740" y="0" width="20" height="20" style="fill:#fff;fill-opacity:0.17;"/><rect x="720" y="20" width="20" height="20" style="fill:#fff;fill-opacity:0.65;"/><rect x="720" y="40" width="20" height="20" style="fill:#fff;fill-opacity:0.69;"/><rect x="720" y="0" width="20" height="20" style="fill:#fff;fill-opacity:0.24;"/><rect x="700" y="20" width="20" height="20" style="fill:#fff;fill-opacity:0.56;"/><rect x="700" y="40" width="20" height="20" style="fill:#fff;fill-opacity:0.87;"/><rect x="700" y="0" width="20" height="20" style="fill:#fff;fill-opacity:0.26;"/><rect x="680" y="20" width="20" height="20" style="fill:#fff;fill-opacity:0.14;"/><rect x="680" y="40" width="20" height="20" style="fill:#fff;fill-opacity:0.41;"/><rect x="680" y="0" width="20" height="20" style="fill:#fff;fill-opacity:0.56;"/><rect x="360" y="20" width="20" height="20" style="fill:#fff;fill-opacity:0.5;"/><rect x="360" y="-0" width="20" height="20" style="fill:#fff;fill-opacity:0.32;"/><rect x="360" y="40" width="20" height="20" style="fill:#fff;fill-opacity:0.13;"/><rect x="380" y="20" width="20" height="20" style="fill:#fff;fill-opacity:0.11;"/><rect x="380" y="-0" width="20" height="20" style="fill:#fff;fill-opacity:0.6;"/><rect x="380" y="40" width="20" height="20" style="fill:#fff;fill-opacity:0.7;"/><rect x="400" y="20" width="20" height="20" style="fill:#fff;fill-opacity:0.29;"/><rect x="400" y="-0" width="20" height="20" style="fill:#fff;fill-opacity:0.16;"/><rect x="400" y="40" width="20" height="20" style="fill:#fff;fill-opacity:0.13;"/><rect x="420" y="20" width="20" height="20" style="fill:#fff;fill-opacity:0.62;"/><rect x="420" y="-0" width="20" height="20" style="fill:#fff;fill-opacity:0.08;"/><rect x="420" y="40" width="20" height="20" style="fill:#fff;fill-opacity:0.25;"/><rect x="440" y="20" width="20" height="20" style="fill:#fff;fill-opacity:0.18;"/><rect x="440" y="-0" width="20" height="20" style="fill:#fff;fill-opacity:0.8;"/><rect x="440" y="40" width="20" height="20" style="fill:#fff;fill-opacity:0.33;"/><rect x="460" y="20" width="20" height="20" style="fill:#fff;fill-opacity:0.78;"/><rect x="460" y="-0" width="20" height="20" style="fill:#fff;fill-opacity:0.3;"/><rect x="460" y="40" width="20" height="20" style="fill:#fff;fill-opacity:0.48;"/><rect x="480" y="20" width="20" height="20" style="fill:#fff;fill-opacity:0.18;"/><rect x="480" y="-0" width="20" height="20" style="fill:#fff;fill-opacity:0.31;"/><rect x="480" y="40" width="20" height="20" style="fill:#fff;fill-opacity:0.57;"/><rect x="500" y="20" width="20" height="20" style="fill:#fff;fill-opacity:0.5;"/><rect x="500" y="-0" width="20" height="20" style="fill:#fff;fill-opacity:0.15;"/><rect x="500" y="40" width="20" height="20" style="fill:#fff;fill-opacity:0.74;"/><rect x="520" y="20" width="20" height="20" style="fill:#fff;fill-opacity:0.18;"/><rect x="520" y="-0" width="20" height="20" style="fill:#fff;fill-opacity:0.65;"/><rect x="520" y="40" width="20" height="20" style="fill:#fff;fill-opacity:0.47;"/><rect x="540" y="20" width="20" height="20" style="fill:#fff;fill-opacity:0.51;"/><rect x="540" y="-0" width="20" height="20" style="fill:#fff;fill-opacity:0.33;"/><rect x="540" y="40" width="20" height="20" style="fill:#fff;fill-opacity:0.42;"/><rect x="560" y="20" width="20" height="20" style="fill:#fff;fill-opacity:0.43;"/><rect x="560" y="-0" width="20" height="20" style="fill:#fff;fill-opacity:0.24;"/><rect x="560" y="40" width="20" height="20" style="fill:#fff;fill-opacity:0.83;"/><rect x="580" y="20" width="20" height="20" style="fill:#fff;fill-opacity:0.67;"/><rect x="580" y="0" width="20" height="20" style="fill:#fff;fill-opacity:0.33;"/><rect x="580" y="40" width="20" height="20" style="fill:#fff;fill-opacity:0.56;"/><rect x="600" y="20" width="20" height="20" style="fill:#fff;fill-opacity:0.53;"/><rect x="600" y="0" width="20" height="20" style="fill:#fff;fill-opacity:0.43;"/><rect x="600" y="40" width="20" height="20" style="fill:#fff;fill-opacity:0.17;"/><rect x="620" y="20" width="20" height="20" style="fill:#fff;fill-opacity:0.65;"/><rect x="620" y="0" width="20" height="20" style="fill:#fff;fill-opacity:0.69;"/><rect x="620" y="40" width="20" height="20" style="fill:#fff;fill-opacity:0.24;"/><rect x="640" y="20" width="20" height="20" style="fill:#fff;fill-opacity:0.56;"/><rect x="640" y="0" width="20" height="20" style="fill:#fff;fill-opacity:0.87;"/><rect x="640" y="40" width="20" height="20" style="fill:#fff;fill-opacity:0.26;"/><rect x="660" y="20" width="20" height="20" style="fill:#fff;fill-opacity:0.14;"/><rect x="660" y="0" width="20" height="20" style="fill:#fff;fill-opacity:0.41;"/><rect x="660" y="40" width="20" height="20" style="fill:#fff;fill-opacity:0.56;"/><rect x="80" y="20" width="20" height="20" style="fill:#fff;fill-opacity:0.5;"/><rect x="80" y="-0" width="20" height="20" style="fill:#fff;fill-opacity:0.32;"/><rect x="80" y="40" width="20" height="20" style="fill:#fff;fill-opacity:0.13;"/><rect x="100" y="20" width="20" height="20" style="fill:#fff;fill-opacity:0.11;"/><rect x="100" y="-0" width="20" height="20" style="fill:#fff;fill-opacity:0.6;"/><rect x="100" y="40" width="20" height="20" style="fill:#fff;fill-opacity:0.7;"/><rect x="120" y="20" width="20" height="20" style="fill:#fff;fill-opacity:0.29;"/><rect x="120" y="-0" width="20" height="20" style="fill:#fff;fill-opacity:0.16;"/><rect x="120" y="40" width="20" height="20" style="fill:#fff;fill-opacity:0.13;"/><rect x="140" y="20" width="20" height="20" style="fill:#fff;fill-opacity:0.62;"/><rect x="140" y="-0" width="20" height="20" style="fill:#fff;fill-opacity:0.08;"/><rect x="140" y="40" width="20" height="20" style="fill:#fff;fill-opacity:0.25;"/><rect x="160" y="20" width="20" height="20" style="fill:#fff;fill-opacity:0.18;"/><rect x="160" y="-0" width="20" height="20" style="fill:#fff;fill-opacity:0.8;"/><rect x="160" y="40" width="20" height="20" style="fill:#fff;fill-opacity:0.33;"/><rect x="180" y="20" width="20" height="20" style="fill:#fff;fill-opacity:0.78;"/><rect x="180" y="-0" width="20" height="20" style="fill:#fff;fill-opacity:0.3;"/><rect x="180" y="40" width="20" height="20" style="fill:#fff;fill-opacity:0.48;"/><rect x="200" y="20" width="20" height="20" style="fill:#fff;fill-opacity:0.18;"/><rect x="200" y="-0" width="20" height="20" style="fill:#fff;fill-opacity:0.31;"/><rect x="200" y="40" width="20" height="20" style="fill:#fff;fill-opacity:0.57;"/><rect x="220" y="20" width="20" height="20" style="fill:#fff;fill-opacity:0.5;"/><rect x="220" y="-0" width="20" height="20" style="fill:#fff;fill-opacity:0.15;"/><rect x="220" y="40" width="20" height="20" style="fill:#fff;fill-opacity:0.74;"/><rect x="240" y="20" width="20" height="20" style="fill:#fff;fill-opacity:0.18;"/><rect x="240" y="-0" width="20" height="20" style="fill:#fff;fill-opacity:0.65;"/><rect x="240" y="40" width="20" height="20" style="fill:#fff;fill-opacity:0.47;"/><rect x="260" y="20" width="20" height="20" style="fill:#fff;fill-opacity:0.51;"/><rect x="260" y="-0" width="20" height="20" style="fill:#fff;fill-opacity:0.33;"/><rect x="260" y="40" width="20" height="20" style="fill:#fff;fill-opacity:0.42;"/><rect x="280" y="20" width="20" height="20" style="fill:#fff;fill-opacity:0.43;"/><rect x="280" y="-0" width="20" height="20" style="fill:#fff;fill-opacity:0.24;"/><rect x="280" y="40" width="20" height="20" style="fill:#fff;fill-opacity:0.83;"/><rect x="300" y="20" width="20" height="20" style="fill:#fff;fill-opacity:0.67;"/><rect x="300" y="-0" width="20" height="20" style="fill:#fff;fill-opacity:0.33;"/><rect x="300" y="40" width="20" height="20" style="fill:#fff;fill-opacity:0.56;"/><rect x="320" y="20" width="20" height="20" style="fill:#fff;fill-opacity:0.53;"/><rect x="320" y="-0" width="20" height="20" style="fill:#fff;fill-opacity:0.43;"/><rect x="320" y="40" width="20" height="20" style="fill:#fff;fill-opacity:0.17;"/><rect x="340" y="20" width="20" height="20" style="fill:#fff;fill-opacity:0.65;"/><rect x="340" y="-0" width="20" height="20" style="fill:#fff;fill-opacity:0.69;"/><rect x="340" y="40" width="20" height="20" style="fill:#fff;fill-opacity:0.24;"/><rect x="360" y="20" width="20" height="20" style="fill:#fff;fill-opacity:0.56;"/><rect x="360" y="-0" width="20" height="20" style="fill:#fff;fill-opacity:0.87;"/><rect x="360" y="40" width="20" height="20" style="fill:#fff;fill-opacity:0.26;"/><rect x="380" y="20" width="20" height="20" style="fill:#fff;fill-opacity:0.14;"/><rect x="380" y="-0" width="20" height="20" style="fill:#fff;fill-opacity:0.41;"/><rect x="380" y="40" width="20" height="20" style="fill:#fff;fill-opacity:0.56;"/><rect x="20" y="20" width="20" height="20" style="fill:#fff;fill-opacity:0.5;"/><rect x="20" y="-0" width="20" height="20" style="fill:#fff;fill-opacity:0.32;"/><rect x="20" y="40" width="20" height="20" style="fill:#fff;fill-opacity:0.13;"/><rect x="40" y="20" width="20" height="20" style="fill:#fff;fill-opacity:0.11;"/><rect x="40" y="-0" width="20" height="20" style="fill:#fff;fill-opacity:0.6;"/><rect x="40" y="40" width="20" height="20" style="fill:#fff;fill-opacity:0.7;"/><rect x="60" y="20" width="20" height="20" style="fill:#fff;fill-opacity:0.29;"/><rect x="60" y="-0" width="20" height="20" style="fill:#fff;fill-opacity:0.16;"/><rect x="60" y="40" width="20" height="20" style="fill:#fff;fill-opacity:0.13;"/><rect x="-0" y="20" width="20" height="20" style="fill:#fff;fill-opacity:0.65;"/><rect x="0" y="0" width="20" height="20" style="fill:#fff;fill-opacity:0.69;"/><rect x="0" y="40" width="20" height="20" style="fill:#fff;fill-opacity:0.24;"/><rect x="20" y="20" width="20" height="20" style="fill:#fff;fill-opacity:0.56;"/><rect x="20" y="-0" width="20" height="20" style="fill:#fff;fill-opacity:0.87;"/><rect x="20" y="40" width="20" height="20" style="fill:#fff;fill-opacity:0.26;"/><rect x="40" y="20" width="20" height="20" style="fill:#fff;fill-opacity:0.14;"/><rect x="40" y="-0" width="20" height="20" style="fill:#fff;fill-opacity:0.41;"/><rect x="40" y="40" width="20" height="20" style="fill:#fff;fill-opacity:0.56;"/></g></svg>